<svg version="1.2" baseProfile="tiny" xmlns="http://www.w3.org/2000/svg" width="100" height="800" viewBox="0 0 100 800"><path stroke="#000" stroke-width="2" stroke-linejoin="round" stroke-miterlimit="10" fill="none" d="M80.287 29.205l12.391 4.338-6.455 11.851 8.748 9.646-11.244 7.623 4.138 12.658-14.052 1.237-2.633 12.883-12.75-4.855-8.565 10.173-8.769-10.309-12.233 5.217-3.011-13.447-13.223-.989 3.439-13.311-11.039-7.106 9.287-10.432-6.632-11.153 12.837-4.699-.425-13.424 13.849 2.159 5.397-12.024 11.467 8.112 10.591-8.112 6.071 12.362 12.748-1.889z"/><path d="M35.336 53.63l.662 2.035-.025-2.035v-12.773h2.816v18.285h-3.928l-5.818-12.773-.662-2.034.023 2.034v12.773h-2.814v-18.285h3.928l5.818 12.773zM53.975 59.143h-11.59v-18.286h11.59v2.483h-8.633v4.637h8.041v2.459h-8.041v6.221h8.633v2.486zM67.574 40.857l2.885 12.773.332 1.892.332-1.892 2.721-12.773h3.051l-4.588 18.285h-3.147l-2.957-13.01-.332-1.892-.332 1.892-2.955 13.01h-3.146l-4.588-18.285h3.05l2.721 12.773.33 1.892.332-1.892 2.887-12.773h3.404z"/><path stroke="#000" stroke-width="2" stroke-linejoin="round" stroke-miterlimit="10" d="M92.961 133.327h-85.922c-1.099 0-1.99.835-1.99 1.867v9.332c0 1.03.892 1.867 1.99 1.867h3.221v31.451c0 1.127.835 2.042 1.866 2.042h2.541c1.031 0 1.867-.915 1.867-2.042v-31.451h67.229v31.451c0 1.127.835 2.042 1.866 2.042h2.541c1.031 0 1.866-.915 1.866-2.042v-31.451h2.925c1.099 0 1.99-.836 1.99-1.867v-9.332c0-1.031-.891-1.867-1.99-1.867z" fill="none"/><g stroke="#000" stroke-width="2" stroke-linejoin="round" stroke-miterlimit="10" fill="none"><path d="M11.52 225.87c0-1.825-1.479-3.305-3.304-3.305-1.826 0-3.306 1.479-3.306 3.305v51.546h6.609v-14.225h76.453v14.233h7.117v-20.843h-83.569v-30.711zM92.718 246.954h-77.302c-1.31 0-2.372 1.366-2.372 3.051v2.002c0 1.685 1.063 3.05 2.372 3.05h77.302c1.311 0 2.372-1.365 2.372-3.05v-2.002c0-1.685-1.062-3.051-2.372-3.051z"/></g><g stroke="#000" stroke-width="2" stroke-linejoin="round" stroke-miterlimit="10" fill="none"><path d="M49.703 344.063c0 .641-.516 1.16-1.152 1.16h-33.304c-.636 0-1.153-.52-1.153-1.16v-11.018c0-.64.518-1.159 1.153-1.159h33.304c.637 0 1.152.52 1.152 1.159v11.018zM85.314 344.063c0 .641-.517 1.16-1.154 1.16h-33.305c-.637 0-1.152-.52-1.152-1.16v-11.018c0-.64.516-1.159 1.152-1.159h33.305c.638 0 1.154.52 1.154 1.159v11.018zM91.854 340.343c-.976-.159-5.32-.662-6.065-.142-.745.52-.391 6.722-.391 6.722l3.052 1.595s1.56 1.188 1.56 1.686v7.319h-80.753v-7.816c0-.566 2.293-2.316 2.293-2.316l2.324-1.229c0-1.064.79-5.87-.621-7.165-1.082-.994-6.598.957-7.396 1.472s-1.117 1.4-1.117 3.281v14.896c0 1.881 1.524 3.405 3.405 3.405h.745v5.558c0 .274.27.496.603.496s.603-.222.603-.496v-5.558h79.347v5.558c0 .274.269.496.602.496.334 0 .604-.222.604-.496v-5.558h1.206c1.881 0 3.405-1.524 3.405-3.405v-14.896c.016-2.627-2.431-3.247-3.406-3.407zM42.747 345.355c2.964.143 6.537 1.663 6.956 2.648v9.519h-40.446v-7.816c0-.566 2.281-2.316 2.281-2.316l2.311-1.229c2.158-.806 25.935-.947 28.898-.806zM85.373 346.923c.85.159 3.066 1.595 3.066 1.595s1.569 1.188 1.569 1.686v7.319h-40.305v-9.519c1.076-.957 3.512-2.045 6.913-2.093 3.398-.047 21.124-.425 28.757 1.012z"/></g><g stroke="#000" stroke-width="2" stroke-miterlimit="10" fill="none"><path d="M70.993 517.814c0-5.244-5.354-9.576-8.253-9.576h-25.537c-4.031 0-8.026 4.671-8.026 9.916l-1.814 25.807c0 5.244 4.405 9.495 9.841 9.495h25.536c5.435 0 9.841-4.25 9.841-9.495l-1.588-26.147z"/><path stroke-linecap="round" d="M13.494 544.078h9.264M77.24 544.078h9.266"/><path d="M81.45 544.078v19.848s.338 1.784-1.87 1.784h-7.258M18.55 544.078v19.295s-.211 2.209 1.956 2.209h7.225M49.996 553.456v7.634"/><path d="M72.322 569.528c0 .396-.306.718-.678.718h-43.236c-.374 0-.678-.322-.678-.718v-7.72c0-.396.304-.718.678-.718h43.236c.372 0 .678.322.678.718v7.72zM49.996 570.246v15.657M33.175 586.532s6.748-7.619 16.821-7.619c10.075 0 16.494 7.494 16.494 7.494"/><circle cx="31.274" cy="588.759" r="2.929"/><path d="M52.891 588.832c0 1.619-1.312 2.93-2.931 2.93-1.615 0-2.929-1.311-2.929-2.93 0-1.618 1.313-2.929 2.929-2.929 1.619 0 2.931 1.311 2.931 2.929z"/><circle cx="68.127" cy="588.832" r="2.929"/></g><path stroke="#000" stroke-width="2" stroke-linecap="round" stroke-linejoin="round" stroke-miterlimit="10" fill="none" d="M49.863 712.515l-38.153 34.359 2.539 2.82 5.864-5.283v43.074h59.775v-43.042l5.874 5.251 2.528-2.83z"/><g stroke="#070707" stroke-linejoin="bevel" stroke-miterlimit="10" fill="none"><path d="M75.463 680.475c.316-.1.616-.265.866-.516.832-.831.832-2.177 0-3.009l-4.243-4.244 3.337 7.643.04.126zM28.939 629.558l-6.019-6.018c-.83-.83-2.179-.83-3.009 0-.499.5-.693 1.185-.592 1.833l.113.037 9.507 4.148zM70.869 669.916l.052.12 6.162 6.163c.415.415.961.623 1.504.623.545 0 1.089-.208 1.504-.623.551-.549.728-1.322.552-2.023l-.072-.023-9.702-4.237zM27.116 620.212l-.435-.433c-.829-.831-2.178-.831-3.008 0-.831.831-.831 2.178 0 3.009l7.935 7.936.118.051-4.61-10.563zM64.734 655.631l-.126-.054.025.054zM76.329 622.699c.832-.831.832-2.178 0-3.009-.829-.831-2.178-.831-3.008 0l-1.37 1.371-3.781 9.799 8.159-8.161zM19.301 674.729c.029.502.228.996.611 1.38.415.416.96.623 1.505.623.544 0 1.089-.207 1.504-.623l5.27-5.27-8.706 3.833-.184.057zM80.571 625.715c.29-.759.133-1.651-.48-2.264-.829-.831-2.178-.831-3.008 0l-6.766 6.765 10.158-4.469.096-.032zM30.878 669.657l-7.204 7.204c-.831.831-.831 2.179 0 3.01.415.415.959.623 1.505.623.543 0 1.089-.208 1.503-.623l1.483-1.482 3.503-9.079-.79.347zM12.235 644.993c-1.174 0-2.127.952-2.127 2.128 0 1.174.953 2.127 2.127 2.127h11.285l-9.748-4.255h-1.537zM87.768 649.249c1.176 0 2.128-.953 2.128-2.127 0-1.176-.952-2.128-2.128-2.128h-.845l-9.668 4.255h10.513zM12.235 650.313c-1.174 0-2.127.952-2.127 2.127 0 1.174.953 2.127 2.127 2.127h2.748l9.67-4.255h-12.418zM87.768 654.567c1.176 0 2.128-.953 2.128-2.127 0-1.175-.952-2.127-2.128-2.127h-11.285l9.748 4.255h1.537zM49.47 612.706c0-1.175-.953-2.128-2.127-2.128-.819 0-1.521.468-1.877 1.146l4.004 9.173v-8.191zM45.512 689.305c.368.632 1.046 1.061 1.831 1.061 1.174 0 2.127-.952 2.127-2.127v-8.918l-3.635 9.421c-.081.207-.19.398-.323.563zM52.661 610.579c-1.175 0-2.128.952-2.128 2.127v7.71l3.575-9.263c-.38-.353-.886-.574-1.447-.574zM50.533 676.564v11.674c0 1.175.953 2.127 2.128 2.127 1.176 0 2.128-.952 2.128-2.127v-4.633l-3.701-8.477-.555 1.436zM37.162 666.892l-5.494 2.417-4.69 12.156c-.148.383-.171.782-.101 1.158.133.7.606 1.317 1.318 1.593.252.097.512.143.767.143.765 0 1.487-.417 1.865-1.111l.12-.251 6.215-16.105zM52.357 627.512l5.781-14.983c.259-.669.152-1.388-.217-1.944-.236-.354-.576-.643-1.003-.808-1.097-.423-2.327.124-2.75 1.22l-4.233 10.969 2.422 5.546zM44.028 663.869l-5.493 2.418-6.596 17.093c-.423 1.096.123 2.329 1.22 2.75.252.098.511.145.766.145.854 0 1.66-.519 1.984-1.362l8.119-21.044zM59.132 612.912l-6.17 15.986 2.422 5.545 7.718-20c.423-1.096-.123-2.328-1.219-2.751-.666-.257-1.379-.152-1.933.212-.359.236-.652.577-.818 1.008zM40.871 686.827l7.191-18.633-2.234-5.116-.425.187-8.501 22.03c-.424 1.096.122 2.327 1.219 2.75.252.098.512.144.766.144.355 0 .701-.095 1.009-.261.43-.233.786-.61.975-1.101zM55.989 635.831l.254.58 4.918-2.165 6.901-17.888c.424-1.096-.122-2.328-1.218-2.751-1.097-.422-2.328.124-2.751 1.219l-8.104 21.005zM71.808 615.522c-1.097-.422-2.328.124-2.75 1.22l-6.522 16.9 5.493-2.418 4.998-12.951.014-.05c.387-1.084-.153-2.284-1.233-2.701zM48.667 669.582l-6.802 17.628c-.423 1.096.123 2.327 1.219 2.75l.134.038c.21.065.422.105.632.105.643 0 1.258-.293 1.662-.799.133-.165.242-.355.323-.563l5.253-13.613-2.421-5.546zM30.606 652.342l-5.303-2.314-13.962 6.144c-.662.291-1.099.878-1.229 1.539-.08.412-.044.851.139 1.265.352.797 1.13 1.272 1.948 1.272.286-.001 18.407-7.906 18.407-7.906zM56.243 636.411l1.701 3.901 24.245-10.67c1.075-.474 1.563-1.729 1.09-2.805l-.018-.031c-.47-1.021-1.648-1.49-2.69-1.09-.032.012-24.328 10.695-24.328 10.695zM82.618 630.616l-24.249 10.67.604 1.384 3.423 1.494 21.936-9.653c1.075-.473 1.563-1.729 1.09-2.804-.328-.748-1.036-1.201-1.798-1.256-.334-.025-.677.02-1.006.165zM37.237 655.235l-5.304-2.315-18.45 8.119c-1.075.473-1.563 1.728-1.09 2.805.352.796 1.131 1.271 1.948 1.271.286 0 .578-.059.856-.181l22.04-9.699zM17.34 669.802l26.36-11.599-.079-.181-5.058-2.208-22.937 10.094c-1.075.474-1.564 1.729-1.091 2.805.246.561.708.958 1.244 1.146.226.078.463.124.704.124.288-.001.579-.058.857-.181zM63.722 644.742l5.305 2.315 17.448-7.678c1.075-.473 1.563-1.729 1.091-2.804-.475-1.075-1.729-1.564-2.806-1.09l-21.038 9.257zM86.903 640.353l-16.552 7.283 5.305 2.316 12.961-5.704c.865-.382 1.341-1.27 1.249-2.164-.021-.216-.067-.433-.159-.642-.473-1.075-1.728-1.562-2.804-1.089zM45.828 663.078l-1.701-3.9-26.357 11.598c-.767.337-1.227 1.073-1.262 1.855-.014.317.035.64.171.948.351.798 1.131 1.273 1.948 1.273.225 0 .452-.047.674-.124l.184-.057 26.343-11.593zM17.729 629.309l16.502 7.203-2.505-5.737-.118-.051-12.175-5.315-.113-.037c-1.052-.39-2.234.095-2.688 1.135-.074.17-.117.345-.145.52-.147.934.336 1.886 1.242 2.282zM58.974 642.67l2.504 5.736 25.477 11.121c.277.12.566.177.851.177.82 0 1.602-.477 1.952-1.277l.104-.325c.254-.994-.234-2.052-1.204-2.477l-29.684-12.955zM62.104 649.84l2.504 5.736.126.054 20.092 8.771c.277.121.565.178.851.178.819 0 1.603-.478 1.95-1.277.471-1.078-.021-2.331-1.098-2.801l-24.425-10.661zM37.362 643.683l-2.505-5.737-17.554-7.662c-.419-.183-.864-.216-1.281-.13-.651.136-1.232.571-1.52 1.229-.469 1.077.021 2.331 1.099 2.801l21.761 9.499zM40.49 650.852l-2.504-5.736-22.81-9.957c-1.079-.47-2.331.022-2.801 1.099-.471 1.076.022 2.33 1.098 2.8l27.017 11.794zM65.234 657.01l2.504 5.736 14.96 6.53c.276.121.566.178.851.178l.308-.023c.702-.103 1.338-.555 1.644-1.254.47-1.077-.021-2.331-1.1-2.8l-19.167-8.367zM82.272 670.251l-13.907-6.072 2.504 5.736 9.701 4.236.072.023c.256.101.519.154.779.154.819 0 1.601-.477 1.95-1.277l.103-.319c.258-.994-.23-2.056-1.202-2.481zM43.621 658.021l-2.504-5.736-28.068-12.251c-1.078-.471-2.331.022-2.802 1.099l-.104.325c-.256.994.232 2.054 1.204 2.477l32.274 14.086zM45.204 611.125c-.471-1.077-1.725-1.569-2.802-1.099-.314.137-.571.346-.777.593-.497.6-.654 1.445-.32 2.208l30.218 69.224c.269.614.792 1.035 1.391 1.199.183.05.37.078.561.078.284 0 .573-.058.851-.178 1.034-.452 1.521-1.628 1.139-2.675-.017-.042-30.261-69.35-30.261-69.35zM70.547 682.477l-30.218-69.224c-.105-.241-.254-.446-.426-.624-.601-.619-1.539-.84-2.376-.475-1.077.47-1.569 1.725-1.1 2.801l30.22 69.224c.349.8 1.13 1.277 1.951 1.277.283 0 .572-.058.85-.179.482-.21.839-.581 1.052-1.019.265-.542.308-1.187.047-1.781zM35.454 615.381c-.47-1.078-1.724-1.569-2.802-1.099-1.076.47-1.567 1.724-1.098 2.801l30.218 69.223c.349.801 1.13 1.278 1.95 1.278.284 0 .573-.058.851-.179 1.077-.471 1.569-1.725 1.099-2.8l-30.218-69.224zM30.578 617.509c-.469-1.077-1.725-1.568-2.801-1.099-.398.174-.717.457-.935.796-.373.579-.46 1.327-.164 2.005l30.219 69.223c.35.8 1.131 1.277 1.951 1.277.266 0 .533-.056.794-.16l.058-.018c1.075-.47 1.567-1.725 1.098-2.801l-30.22-69.223z"/></g><g stroke="#000" stroke-width="2" stroke-miterlimit="10" fill="none"><path d="M70.104 422.045c-.967 0-1.915.069-2.845.201-3.511-5.865-9.926-9.792-17.26-9.792-7.035 0-13.228 3.616-16.818 9.088-1.069-.176-2.166-.268-3.284-.268-11.103 0-20.104 9.001-20.104 20.103 0 9.117 6.069 16.815 14.387 19.278v26.89h51.639v-26.12c8.317-2.462 14.387-10.161 14.387-19.277 0-11.102-9.001-20.103-20.102-20.103zM24.181 481.69h51.638"/></g></svg>