<svg version="1.2" baseProfile="tiny" xmlns="http://www.w3.org/2000/svg" width="100" height="100" viewBox="-16.126 -12.5 100 100"><path d="M35.849 64.645c-1.488 0-8.977-.161-9.552-3.338-.445-2.438 1.48-6.481 4.683-9.832 3.226-3.381 33.908-18.898 37.399-20.656l.479-.244.536.075c2.54.344 5.606 3.172 6.98 6.437 1.174 2.805.959 5.508-.604 7.609l-.294.305c-6.243 4.616-33.647 19.598-38.237 19.6l-.27-.012c-.202.035-.621.056-1.12.056zm-6.117-4.355c.743.293 2.588.668 4.594.812-.741-2.063-2.002-3.614-2.947-4.565-1.07 1.638-1.547 3.017-1.647 3.753zm3.835-6.488c1.412 1.351 3.444 3.779 4.363 7.2 3.963-1.046 19.08-8.819 29.018-14.679-2.328-2.392-3.52-6.22-4.088-8.792-16.448 8.466-27.569 14.649-29.293 16.271zm32.501-17.913c.583 3.178 1.931 7.083 3.996 8.549 1.271-.792 2.296-1.47 3.048-2.014.859-1.344.508-2.905.055-3.994-.84-1.99-2.584-3.713-3.811-4.213-1.06.537-2.159 1.094-3.288 1.672z"/><path stroke="#000" stroke-width="4" stroke-linecap="round" stroke-miterlimit="10" d="M13.994 11.085h29.67m-29.67 9.165h29.67m-29.67 12.123h29.67m17.137-3.106v-25.771s-1.301-7.953-9.713-7.953h-44.325s-7.749.917-7.749 8.055v70.151s-.001 5.709 6.729 5.709h45.997s9.059.203 9.059-8.974v-11.511" fill="none"/></svg>