<svg version="1.2" baseProfile="tiny" xmlns="http://www.w3.org/2000/svg" width="1849.118" height="300" viewBox="0 0 1849.118 300"><path fill="#0077E7" d="M10 44c0-18.778 15.222-34 34-34h212c18.777 0 34 15.222 34 34v212c0 18.777-15.223 34-34 34h-212c-18.778 0-34-15.223-34-34"/><path fill="#00509C" d="M149.617 45.344l-106.523 95.928 7.09 7.872 16.373-14.745v120.257h166.887v-120.174l16.401 14.661 7.061-7.898z"/><path d="M352.896 236.652c-.803 0-1.481-.281-2.04-.84-.563-.563-.84-1.24-.84-2.039v-175.2c0-.799.277-1.478.84-2.04.559-.559 1.237-.84 2.04-.84h21.36c.799 0 1.477.281 2.039.84.559.563.84 1.241.84 2.04v72h74.4v-72c0-.799.277-1.478.84-2.04.559-.559 1.238-.84 2.041-.84h21.359c.799 0 1.478.281 2.04.84.559.563.84 1.241.84 2.04v175.201c0 .799-.281 1.477-.84 2.039-.563.559-1.241.84-2.04.84h-21.359c-1.921 0-2.881-.959-2.881-2.879v-78h-74.4v78c0 1.92-.959 2.879-2.879 2.879h-21.36zM622.653 218.173c-5.76 7.2-12.641 12.679-20.64 16.44-8.003 3.757-17.04 5.64-27.12 5.64-10.24 0-19.282-1.841-27.119-5.521-7.842-3.682-14.4-8.723-19.681-15.119-5.28-6.398-9.239-13.838-11.88-22.32-2.641-8.479-3.96-17.52-3.96-27.12s1.319-18.638 3.96-27.12c2.641-8.479 6.6-15.877 11.88-22.2 5.28-6.319 11.798-11.318 19.56-15 7.76-3.679 16.838-5.52 27.24-5.52 10.238 0 19.279 1.841 27.12 5.52 7.838 3.682 14.4 8.681 19.681 15 5.279 6.322 9.24 13.721 11.879 22.2 2.641 8.482 3.961 17.52 3.961 27.12 0 9.442-1.283 18.281-3.84 26.521-2.561 8.242-6.24 15.4-11.041 21.479zm-47.759-94.32c-6.24 0-11.64 1.361-16.199 4.08-4.561 2.723-8.28 6.281-11.16 10.68-2.881 4.402-5.041 9.36-6.48 14.879-1.439 5.521-2.16 11.082-2.16 16.681 0 5.603.721 11.16 2.16 16.681 1.439 5.52 3.6 10.521 6.48 15 2.88 4.48 6.6 8.08 11.16 10.799 4.56 2.723 9.959 4.08 16.199 4.08s11.641-1.357 16.2-4.08c4.56-2.719 8.28-6.318 11.16-10.799 2.88-4.479 5.04-9.48 6.479-15 1.44-5.521 2.16-11.078 2.16-16.681 0-5.438-.72-10.92-2.16-16.44-1.439-5.52-3.6-10.477-6.479-14.879-2.88-4.399-6.601-7.999-11.16-10.8-4.56-2.799-9.96-4.201-16.2-4.201zM822.812 236.412c-.803 0-1.523-.359-2.16-1.079-.642-.72-.961-1.481-.961-2.28v-83.04c0-7.519-1.762-13.639-5.279-18.36-3.521-4.717-8.641-7.08-15.36-7.08-4.8 0-9.083 1.001-12.84 3-3.761 2.002-6.923 4.721-9.479 8.16-2.563 3.442-4.523 7.56-5.881 12.36-1.361 4.8-2.039 10.001-2.039 15.601v69.6c0 2.077-.961 3.119-2.881 3.119h-19.92c-.803 0-1.522-.359-2.16-1.079-.641-.72-.959-1.481-.959-2.28v-83.04c0-16.958-7.043-25.44-21.121-25.44-8.962 0-15.959 2.723-21 8.16-5.039 5.441-7.56 12.96-7.56 22.56v78c0 2.077-.96 3.119-2.88 3.119h-19.92c-.803 0-1.481-.359-2.04-1.079-.563-.72-.841-1.481-.841-2.28v-95.52c0-6.079-.082-11.917-.239-17.52-.161-5.599-.401-9.998-.72-13.2-.322-2.078.799-3.12 3.359-3.12h20.4c1.439 0 2.16.649 2.16 1.942l-.24 8.498c3.199-3.712 7.598-6.859 13.199-9.442 5.6-2.584 11.521-3.877 17.761-3.877 8.317 0 15.919 1.92 22.8 5.76 6.877 3.84 11.839 9.521 14.881 17.04 3.678-7.68 9.119-13.399 16.319-17.16 7.2-3.757 14.88-5.64 23.04-5.64 13.598 0 24.559 4.042 32.88 12.12 8.317 8.082 12.479 19.403 12.479 33.96v86.4c0 .799-.281 1.519-.84 2.16-.563.637-1.24.959-2.039.959h-19.919zM985.769 176.173c0 1.282-.36 2.243-1.08 2.88-.721.641-1.481.96-2.28.96h-78.96c.799 10.722 4.158 19.481 10.08 26.28 5.918 6.803 13.999 10.199 24.24 10.199 5.279 0 11.279-.678 18-2.039 6.72-1.357 12.877-3.721 18.48-7.08 1.117-.638 1.837-.559 2.159.24.319.803.479 1.841.479 3.119v16.561c0 1.439-.239 2.557-.719 3.359-.48.799-1.44 1.598-2.881 2.4-4.8 2.558-10.439 4.398-16.92 5.52-6.48 1.118-13.08 1.681-19.8 1.681-19.841 0-34.841-5.962-45-17.88-10.163-11.918-15.24-29.4-15.24-52.44 0-8.64 1.118-17.118 3.36-25.44 2.238-8.317 5.64-15.757 10.199-22.32 4.561-6.559 10.358-11.839 17.4-15.84 7.039-3.998 15.36-6 24.961-6 9.757 0 18.037 1.841 24.84 5.52 6.799 3.682 12.359 8.64 16.68 14.88 4.32 6.24 7.439 13.522 9.359 21.84 1.92 8.321 2.881 17.201 2.881 26.64 0 1.121-.041 2.4-.121 3.84-.08 1.439-.117 2.482-.117 3.12zm-52.561-52.8c-4.32 0-8.16.96-11.52 2.88-3.36 1.92-6.24 4.402-8.641 7.44-2.399 3.041-4.361 6.563-5.879 10.56-1.523 4.001-2.604 8.003-3.24 12h54.959c0-3.198-.521-6.72-1.56-10.56-1.042-3.84-2.603-7.399-4.68-10.68-2.081-3.277-4.722-6.038-7.92-8.28-3.201-2.239-7.04-3.36-11.519-3.36zM1190.487 216.013c-4.32 3.521-9.202 6.563-14.64 9.12-5.441 2.558-11.28 4.68-17.521 6.359-6.24 1.681-12.72 2.959-19.439 3.841-6.721.878-13.361 1.319-19.92 1.319h-29.28c-2.723 0-4.361-.322-4.92-.959-.563-.642-.841-2.16-.841-4.561v-169.2c0-3.037.278-4.837.841-5.4.559-.559 2.358-.84 5.399-.84h40.801c31.199 0 54.397 8.801 69.6 26.4 6.72 7.68 11.719 16.601 15 26.76 3.277 10.162 4.92 22.44 4.92 36.84 0 14.879-2.603 28.403-7.8 40.56-5.201 12.162-12.6 22.081-22.2 29.761zm-10.559-115.92c-10.241-12.637-26.723-18.96-49.44-18.96h-18.72v129.84h10.8c9.277 0 18-1.158 26.16-3.48 8.16-2.316 15.359-6.037 21.6-11.159 7.2-5.438 12.758-12.438 16.681-21 3.918-8.558 5.88-18.758 5.88-30.6 0-9.6-1.043-18.12-3.12-25.56-2.082-7.441-5.364-13.801-9.841-19.081zM1358.245 176.173c0 1.282-.36 2.243-1.08 2.88-.72.641-1.481.96-2.28.96h-78.96c.799 10.722 4.159 19.481 10.08 26.28 5.918 6.803 13.999 10.199 24.24 10.199 5.28 0 11.28-.678 18-2.039 6.72-1.357 12.877-3.721 18.479-7.08 1.118-.638 1.838-.559 2.16.24.319.803.48 1.841.48 3.119v16.561c0 1.439-.24 2.557-.721 3.359-.479.799-1.439 1.598-2.88 2.4-4.8 2.558-10.439 4.398-16.92 5.52-6.479 1.118-13.08 1.681-19.8 1.681-19.841 0-34.841-5.962-45-17.88-10.162-11.918-15.24-29.4-15.24-52.44 0-8.64 1.118-17.118 3.36-25.44 2.238-8.317 5.64-15.757 10.2-22.32 4.56-6.559 10.357-11.839 17.399-15.84 7.039-3.998 15.36-6 24.96-6 9.758 0 18.038 1.841 24.84 5.52 6.799 3.682 12.36 8.64 16.681 14.88 4.319 6.24 7.439 13.522 9.359 21.84 1.921 8.321 2.881 17.201 2.881 26.64 0 1.121-.042 2.4-.12 3.84-.081 1.439-.118 2.482-.118 3.12zm-52.56-52.8c-4.319 0-8.159.96-11.52 2.88s-6.24 4.402-8.64 7.44c-2.4 3.041-4.361 6.563-5.881 10.56-1.522 4.001-2.603 8.003-3.239 12h54.96c0-3.198-.521-6.72-1.561-10.56-1.042-3.84-2.603-7.399-4.68-10.68-2.081-3.277-4.722-6.038-7.92-8.28-3.202-2.239-7.042-3.36-11.519-3.36zM1446.564 231.613c-8.64 5.76-18.881 8.64-30.72 8.64-3.202 0-6.563-.161-10.08-.479-3.521-.323-6.923-.721-10.2-1.201-3.281-.479-6.202-1.042-8.76-1.68-2.562-.641-4.56-1.282-6-1.92-.642-.322-1.32-.762-2.04-1.32-.72-.563-1.001-1.48-.84-2.76l1.439-15.6c.158-1.598.398-2.558.721-2.881.318-.318 1.357-.239 3.12.24 5.279 1.602 10.759 2.76 16.439 3.48 5.678.721 10.759 1.08 15.24 1.08 7.039 0 12.277-1.759 15.72-5.28 3.439-3.517 5.16-7.597 5.16-12.239 0-2.559-.881-5.16-2.64-7.801-1.763-2.64-4.722-5.317-8.88-8.039-4.32-2.559-8.802-5.16-13.44-7.801-4.643-2.641-9.202-5.238-13.68-7.8-5.123-3.038-9.401-7.08-12.84-12.12-3.443-5.04-5.16-10.598-5.16-16.68 0-6.72 1.2-12.517 3.6-17.4 2.4-4.878 5.599-8.958 9.601-12.24 3.997-3.278 8.599-5.678 13.8-7.2 5.197-1.519 10.68-2.28 16.439-2.28 3.038 0 6.199.161 9.48.48 3.277.322 6.479.761 9.6 1.32 3.12.563 5.918 1.2 8.4 1.92 2.479.72 4.357 1.481 5.64 2.28.799.48 1.237.922 1.32 1.32.078.401.037 1.001-.12 1.8l-1.44 15.36c-.161 1.762-.563 2.76-1.199 3-.642.24-1.842.202-3.601-.12-3.041-1.118-6.479-2.16-10.319-3.12-2.243-.319-4.602-.637-7.08-.96-2.482-.319-5.562-.48-9.24-.48-6.563 0-11.201 1.522-13.92 4.56-2.723 3.041-4.08 6.72-4.08 11.04 0 2.561 1.519 5.28 4.56 8.16 3.038 2.88 6.878 5.519 11.521 7.919 4.957 2.4 9.559 4.883 13.8 7.44 4.237 2.562 7.398 4.643 9.479 6.239 5.761 4.163 10.08 8.682 12.961 13.561 2.88 4.883 4.319 10.763 4.319 17.641.001 13.441-5.362 24.083-16.08 31.921zM1500.084 78.733c-4.643 0-8.521-1.571-11.641-4.714s-4.68-6.971-4.68-11.486c0-4.672 1.56-8.617 4.68-11.842s6.998-4.837 11.641-4.837c4.639 0 8.557 1.612 11.76 4.837 3.198 3.225 4.8 7.17 4.8 11.842 0 4.515-1.602 8.344-4.8 11.486-3.203 3.143-7.121 4.714-11.76 4.714zm-10.32 158.16c-.803 0-1.481-.281-2.04-.836-.563-.563-.84-1.241-.84-2.04v-126.248c0-.799.277-1.478.84-2.036.559-.559 1.237-.84 2.04-.84h20.16c.799 0 1.478.281 2.04.84.559.559.84 1.237.84 2.036v126.248c0 .799-.281 1.478-.84 2.04-.563.555-1.241.836-2.04.836h-20.16zM1593.201 273.854c-6.4 0-12.72-.443-18.96-1.32-6.239-.882-12.4-2.441-18.479-4.68-1.44-.803-2.441-1.441-3-1.921-.563-.479-.84-1.282-.84-2.399l1.2-19.44c.318-3.041 1.92-3.84 4.8-2.399 5.438 2.719 11.317 4.758 17.64 6.119 6.319 1.357 12.277 2.041 17.88 2.041 10.399 0 18.679-2.723 24.84-8.16 6.158-5.441 9.48-12.882 9.96-22.32-4.162 4.48-9.041 7.838-14.64 10.08-5.603 2.238-11.122 3.359-16.56 3.359-8.003 0-15.442-1.56-22.32-4.68-6.881-3.12-12.803-7.439-17.76-12.96-4.962-5.521-8.843-12.12-11.641-19.8-2.801-7.68-4.199-16.08-4.199-25.2 0-23.678 4.759-41.198 14.279-52.56 9.518-11.359 23.16-17.04 40.92-17.04 3.199 0 6.439.401 9.721 1.2 3.277.802 6.438 1.841 9.479 3.12 3.038 1.282 5.839 2.76 8.4 4.44 2.558 1.68 4.8 3.48 6.72 5.4l-.24-8.4c-.161-1.279-.082-2.16.24-2.64.318-.48 1.278-.72 2.88-.72h18.96c1.92 0 2.88 1.2 2.88 3.6v99.121c0 21.6-5.279 38.358-15.84 50.279-10.559 11.917-26.001 17.88-46.32 17.88zm6-149.761c-10.079 0-17.801 3.683-23.159 11.04-5.363 7.361-8.04 19.043-8.04 35.04 0 6.083.799 11.521 2.399 16.319 1.598 4.801 3.799 8.844 6.601 12.121 2.797 3.281 6 5.801 9.6 7.56 3.6 1.763 7.398 2.64 11.4 2.64 4.478 0 8.64-.877 12.479-2.64 3.84-1.759 7.2-4.319 10.08-7.681 2.88-3.359 5.16-7.439 6.84-12.239 1.681-4.8 2.521-10.32 2.521-16.56 0-14.559-2.723-25.8-8.16-33.721-5.442-7.919-12.96-11.879-22.561-11.879zM1776.318 236.412c-.803 0-1.481-.359-2.04-1.079-.563-.72-.84-1.481-.84-2.28v-76.32c0-11.52-1.801-19.837-5.4-24.959-3.6-5.119-9.24-7.68-16.92-7.68-10.56 0-18.36 2.921-23.4 8.76-5.04 5.842-7.56 14.28-7.56 25.32v75.12c0 2.077-.96 3.119-2.88 3.119h-19.92c-.803 0-1.481-.359-2.04-1.079-.563-.72-.84-1.481-.84-2.28v-95.52c0-6.079-.042-11.917-.12-17.52-.083-5.599-.281-9.998-.601-13.2-.322-2.078.799-3.12 3.36-3.12h18.96c1.759 0 2.479.649 2.16 1.942l-.24 8.738c3.998-3.87 8.798-7.178 14.4-9.923 5.599-2.745 12.078-4.117 19.439-4.117 15.36 0 27.079 4.522 35.16 13.56 8.077 9.041 12.12 22.121 12.12 39.24v80.16c0 2.077-.96 3.119-2.88 3.119h-19.918z"/></svg>