<svg version="1.2" baseProfile="tiny" xmlns="http://www.w3.org/2000/svg" width="1849.118" height="300" viewBox="0 0 1849.118 300"><path fill="#0077E7" d="M10 44c0-18.778 15.222-34 34-34h212c18.777 0 34 15.222 34 34v212c0 18.777-15.223 34-34 34h-212c-18.778 0-34-15.223-34-34"/><path fill="#00509C" d="M149.617 45.344l-106.523 95.928 7.09 7.872 16.373-14.745v120.257h166.887v-120.174l16.401 14.661 7.061-7.898-107.289-95.901z"/><path fill="#222" d="M352.896 236.652c-.804 0-1.481-.281-2.04-.84-.563-.563-.841-1.24-.841-2.039v-175.2c0-.799.277-1.478.841-2.04.559-.559 1.236-.84 2.04-.84h21.359c.799 0 1.478.281 2.039.84.559.563.84 1.241.84 2.04v72h74.4v-72c0-.799.276-1.478.84-2.04.559-.559 1.238-.84 2.041-.84h21.359c.799 0 1.478.281 2.04.84.559.563.84 1.241.84 2.04v175.2c0 .8-.281 1.478-.84 2.039-.563.56-1.241.84-2.04.84h-21.359c-1.921 0-2.881-.959-2.881-2.879v-78h-74.4v78c0 1.92-.959 2.879-2.879 2.879h-21.359zm269.757-18.479c-5.761 7.2-12.642 12.679-20.641 16.44-8.003 3.757-17.04 5.64-27.12 5.64-10.239 0-19.281-1.841-27.118-5.521-7.843-3.683-14.4-8.724-19.682-15.119-5.28-6.398-9.239-13.838-11.88-22.32-2.641-8.479-3.96-17.52-3.96-27.12 0-9.6 1.319-18.638 3.96-27.12 2.641-8.479 6.6-15.877 11.88-22.2 5.28-6.319 11.798-11.318 19.561-15 7.76-3.679 16.838-5.52 27.239-5.52 10.238 0 19.279 1.841 27.12 5.52 7.838 3.682 14.4 8.681 19.682 15 5.278 6.322 9.239 13.721 11.879 22.2 2.641 8.482 3.961 17.52 3.961 27.12 0 9.442-1.283 18.281-3.84 26.521-2.561 8.242-6.24 15.4-11.041 21.479zm-47.758-94.32c-6.24 0-11.641 1.361-16.199 4.08-4.562 2.723-8.28 6.281-11.16 10.68-2.881 4.402-5.041 9.36-6.48 14.879-1.438 5.521-2.159 11.082-2.159 16.681 0 5.603.721 11.16 2.159 16.681 1.439 5.521 3.601 10.521 6.48 15 2.88 4.48 6.6 8.08 11.16 10.799 4.56 2.724 9.959 4.08 16.199 4.08 6.239 0 11.641-1.356 16.199-4.08 4.561-2.719 8.28-6.317 11.16-10.799 2.88-4.479 5.04-9.479 6.479-15s2.159-11.078 2.159-16.681c0-5.438-.72-10.92-2.159-16.44-1.439-5.52-3.601-10.477-6.479-14.878-2.88-4.399-6.601-7.999-11.16-10.8-4.56-2.8-9.96-4.202-16.199-4.202zm247.918 112.559c-.804 0-1.523-.359-2.16-1.079-.643-.72-.961-1.481-.961-2.28v-83.04c0-7.519-1.763-13.639-5.279-18.36-3.521-4.717-8.641-7.08-15.36-7.08-4.8 0-9.083 1.001-12.84 3-3.761 2.002-6.923 4.721-9.479 8.16-2.563 3.442-4.523 7.56-5.882 12.36-1.36 4.8-2.038 10.001-2.038 15.601v69.601c0 2.077-.962 3.119-2.882 3.119h-19.92c-.803 0-1.521-.358-2.159-1.079-.642-.72-.959-1.48-.959-2.279v-83.041c0-16.958-7.044-25.44-21.121-25.44-8.962 0-15.959 2.723-21 8.16-5.039 5.441-7.561 12.96-7.561 22.56v78c0 2.077-.96 3.119-2.88 3.119h-19.92c-.803 0-1.48-.358-2.04-1.079-.563-.72-.841-1.48-.841-2.279v-95.521c0-6.079-.082-11.917-.239-17.52-.161-5.599-.4-9.998-.72-13.2-.322-2.078.799-3.12 3.359-3.12h20.399c1.439 0 2.16.649 2.16 1.942l-.24 8.498c3.199-3.712 7.599-6.859 13.199-9.442 5.6-2.584 11.521-3.877 17.761-3.877 8.317 0 15.919 1.92 22.8 5.76 6.878 3.84 11.84 9.521 14.882 17.04 3.678-7.68 9.118-13.399 16.318-17.16 7.2-3.757 14.88-5.64 23.04-5.64 13.599 0 24.56 4.042 32.88 12.12 8.317 8.082 12.479 19.403 12.479 33.96v86.4c0 .799-.281 1.52-.84 2.16-.563.637-1.24.959-2.039.959h-19.919v-.003zm162.955-60.239c0 1.282-.359 2.243-1.078 2.88-.723.641-1.482.961-2.281.961h-78.959c.799 10.721 4.158 19.48 10.08 26.279 5.918 6.803 13.999 10.199 24.239 10.199 5.279 0 11.279-.678 18-2.039 6.721-1.357 12.877-3.721 18.48-7.08 1.117-.639 1.838-.559 2.16.24.318.803.479 1.841.479 3.119v16.561c0 1.439-.24 2.557-.719 3.359-.48.799-1.441 1.598-2.881 2.4-4.801 2.557-10.439 4.397-16.92 5.52-6.48 1.117-13.08 1.681-19.801 1.681-19.841 0-34.841-5.962-45-17.88-10.163-11.918-15.24-29.4-15.24-52.439 0-8.641 1.118-17.119 3.359-25.44 2.238-8.317 5.641-15.757 10.199-22.32 4.562-6.559 10.358-11.839 17.4-15.84 7.039-3.998 15.359-6 24.96-6 9.758 0 18.037 1.841 24.84 5.52 6.799 3.682 12.359 8.64 16.68 14.88 4.32 6.24 7.439 13.522 9.359 21.84 1.92 8.321 2.881 17.2 2.881 26.64 0 1.121-.041 2.4-.121 3.84s-.116 2.481-.116 3.119zm-52.56-52.8c-4.32 0-8.16.96-11.52 2.88-3.359 1.92-6.239 4.402-8.641 7.44-2.398 3.041-4.361 6.563-5.879 10.56-1.523 4.001-2.604 8.003-3.24 12h54.959c0-3.198-.521-6.72-1.561-10.56-1.041-3.84-2.604-7.399-4.68-10.68-2.08-3.277-4.723-6.038-7.92-8.28-3.2-2.239-7.038-3.36-11.518-3.36zm257.279 92.641c-4.32 3.521-9.201 6.563-14.641 9.119-5.439 2.559-11.279 4.68-17.52 6.359-6.24 1.681-12.721 2.959-19.439 3.841-6.721.878-13.361 1.319-19.92 1.319h-29.279c-2.725 0-4.361-.322-4.922-.959-.563-.643-.84-2.16-.84-4.562v-169.2c0-3.037.277-4.837.84-5.4.561-.559 2.359-.84 5.4-.84h40.801c31.199 0 54.396 8.801 69.6 26.4 6.721 7.68 11.719 16.601 15 26.76 3.277 10.162 4.92 22.44 4.92 36.84 0 14.878-2.604 28.403-7.799 40.56-5.201 12.163-12.602 22.082-22.201 29.763zm-10.559-115.921c-10.24-12.637-26.723-18.96-49.439-18.96h-18.721v129.84h10.801c9.277 0 18-1.158 26.16-3.479 8.16-2.316 15.357-6.037 21.6-11.159 7.199-5.438 12.758-12.438 16.682-21 3.918-8.559 5.879-18.758 5.879-30.6 0-9.6-1.043-18.12-3.119-25.56-2.083-7.442-5.366-13.802-9.843-19.082zm178.317 76.08c0 1.282-.359 2.243-1.08 2.88-.719.641-1.48.961-2.279.961h-78.961c.799 10.721 4.16 19.48 10.08 26.279 5.918 6.803 14 10.199 24.24 10.199 5.281 0 11.281-.678 18-2.039 6.721-1.357 12.877-3.721 18.479-7.08 1.119-.639 1.84-.559 2.16.24.32.803.48 1.841.48 3.119v16.561c0 1.439-.24 2.557-.721 3.359-.479.799-1.439 1.598-2.881 2.4-4.799 2.557-10.438 4.397-16.92 5.52-6.479 1.117-13.08 1.681-19.799 1.681-19.842 0-34.842-5.962-45-17.88-10.162-11.918-15.24-29.4-15.24-52.439 0-8.641 1.117-17.119 3.359-25.44 2.238-8.317 5.641-15.757 10.201-22.32 4.559-6.559 10.355-11.839 17.398-15.84 7.039-3.998 15.359-6 24.959-6 9.76 0 18.039 1.841 24.84 5.52 6.801 3.682 12.361 8.64 16.682 14.88 4.318 6.24 7.439 13.522 9.359 21.84 1.922 8.321 2.881 17.2 2.881 26.64 0 1.121-.041 2.4-.119 3.84-.081 1.438-.118 2.481-.118 3.119zm-52.561-52.8c-4.318 0-8.158.96-11.52 2.88s-6.24 4.402-8.639 7.44c-2.4 3.041-4.361 6.563-5.883 10.56-1.521 4.001-2.602 8.003-3.238 12h54.961c0-3.198-.521-6.72-1.563-10.56-1.041-3.84-2.602-7.399-4.68-10.68-2.08-3.277-4.723-6.038-7.92-8.28-3.2-2.239-7.039-3.36-11.518-3.36zm140.881 108.24c-8.641 5.76-18.883 8.64-30.721 8.64-3.203 0-6.563-.161-10.08-.479-3.521-.322-6.924-.721-10.199-1.2-3.281-.479-6.203-1.042-8.762-1.681-2.561-.641-4.559-1.281-6-1.92-.641-.322-1.318-.762-2.039-1.32-.721-.563-1.002-1.479-.84-2.76l1.439-15.6c.158-1.598.396-2.559.721-2.881.318-.318 1.357-.239 3.119.24 5.279 1.602 10.76 2.76 16.439 3.479 5.678.722 10.76 1.08 15.24 1.08 7.039 0 12.277-1.759 15.719-5.28 3.439-3.517 5.16-7.597 5.16-12.238 0-2.56-.881-5.16-2.639-7.801-1.764-2.641-4.723-5.317-8.881-8.039-4.32-2.56-8.801-5.16-13.439-7.802-4.643-2.641-9.203-5.237-13.68-7.8-5.123-3.038-9.402-7.08-12.84-12.12-3.443-5.04-5.16-10.598-5.16-16.68 0-6.72 1.199-12.517 3.6-17.4 2.4-4.878 5.6-8.958 9.602-12.24 3.996-3.278 8.598-5.678 13.799-7.2 5.197-1.519 10.68-2.28 16.439-2.28 3.037 0 6.199.161 9.48.48 3.277.322 6.479.761 9.6 1.32 3.119.563 5.918 1.2 8.4 1.92 2.479.72 4.357 1.481 5.639 2.28.799.48 1.238.922 1.32 1.32.078.401.037 1.001-.119 1.8l-1.439 15.36c-.162 1.762-.564 2.76-1.199 3-.643.24-1.842.202-3.602-.12-3.041-1.118-6.479-2.16-10.318-3.12-2.244-.319-4.604-.637-7.08-.96-2.482-.319-5.563-.48-9.24-.48-6.563 0-11.201 1.522-13.92 4.56-2.723 3.041-4.08 6.72-4.08 11.04 0 2.561 1.52 5.28 4.561 8.16 3.037 2.88 6.877 5.519 11.52 7.918 4.957 2.4 9.561 4.883 13.801 7.44 4.236 2.562 7.398 4.644 9.479 6.239 5.762 4.162 10.08 8.682 12.961 13.561 2.881 4.883 4.32 10.764 4.32 17.641-.001 13.443-5.364 24.085-16.081 31.923zm53.519-152.88c-4.643 0-8.521-1.571-11.641-4.714-3.121-3.143-4.682-6.971-4.682-11.486 0-4.672 1.561-8.617 4.682-11.842 3.119-3.225 6.998-4.837 11.641-4.837 4.639 0 8.557 1.612 11.76 4.837 3.197 3.225 4.801 7.17 4.801 11.842 0 4.515-1.604 8.344-4.801 11.486-3.203 3.143-7.121 4.714-11.76 4.714zm-10.32 158.16c-.803 0-1.48-.281-2.041-.836-.563-.563-.84-1.24-.84-2.039v-126.249c0-.799.277-1.478.84-2.036.561-.559 1.238-.84 2.041-.84h20.16c.799 0 1.479.281 2.039.84s.84 1.237.84 2.036v126.249c0 .799-.279 1.478-.84 2.039-.563.555-1.24.836-2.039.836h-20.16zm103.438 36.961c-6.4 0-12.721-.442-18.961-1.319-6.238-.882-12.4-2.441-18.479-4.681-1.439-.803-2.441-1.44-3-1.92-.563-.479-.84-1.283-.84-2.399l1.199-19.44c.318-3.041 1.92-3.84 4.801-2.398 5.438 2.719 11.316 4.758 17.641 6.119 6.318 1.356 12.275 2.041 17.879 2.041 10.398 0 18.68-2.724 24.84-8.16 6.158-5.441 9.48-12.883 9.961-22.32-4.162 4.48-9.041 7.838-14.641 10.08-5.604 2.238-11.121 3.359-16.561 3.359-8.002 0-15.441-1.561-22.32-4.681-6.881-3.12-12.803-7.438-17.76-12.96-4.961-5.521-8.842-12.119-11.641-19.8-2.801-7.681-4.199-16.08-4.199-25.2 0-23.678 4.76-41.198 14.279-52.56 9.518-11.359 23.16-17.04 40.92-17.04 3.199 0 6.439.401 9.721 1.2 3.277.802 6.439 1.841 9.48 3.12 3.037 1.282 5.838 2.76 8.398 4.44 2.559 1.68 4.801 3.48 6.721 5.4l-.24-8.4c-.16-1.279-.082-2.16.24-2.64.318-.48 1.277-.72 2.881-.72h18.959c1.92 0 2.881 1.2 2.881 3.6v99.121c0 21.6-5.279 38.357-15.84 50.279-10.56 11.916-26.001 17.879-46.319 17.879zm6-149.761c-10.08 0-17.801 3.683-23.16 11.04-5.363 7.361-8.039 19.043-8.039 35.04 0 6.083.799 11.521 2.398 16.319 1.598 4.801 3.799 8.844 6.602 12.121 2.797 3.281 6 5.801 9.6 7.56 3.6 1.763 7.398 2.64 11.4 2.64 4.479 0 8.639-.877 12.479-2.64 3.84-1.759 7.199-4.319 10.08-7.681 2.881-3.359 5.16-7.439 6.84-12.239 1.682-4.8 2.521-10.319 2.521-16.56 0-14.56-2.723-25.8-8.16-33.721-5.442-7.919-12.962-11.879-22.561-11.879zm177.117 112.319c-.805 0-1.482-.359-2.041-1.079-.563-.72-.84-1.481-.84-2.28v-76.32c0-11.52-1.801-19.836-5.4-24.958-3.6-5.119-9.24-7.68-16.92-7.68-10.561 0-18.359 2.921-23.4 8.76-5.039 5.842-7.559 14.28-7.559 25.32v75.12c0 2.077-.961 3.119-2.881 3.119h-19.92c-.803 0-1.48-.358-2.041-1.079-.563-.72-.84-1.48-.84-2.279v-95.521c0-6.079-.041-11.917-.119-17.52-.084-5.599-.281-9.998-.602-13.2-.322-2.078.799-3.12 3.361-3.12h18.959c1.76 0 2.479.649 2.16 1.942l-.24 8.738c3.998-3.87 8.799-7.178 14.4-9.923 5.6-2.745 12.078-4.117 19.439-4.117 15.359 0 27.078 4.522 35.16 13.56 8.076 9.041 12.119 22.121 12.119 39.24v80.16c0 2.077-.959 3.119-2.879 3.119l-19.916-.002z"/></svg>